<svg width="18" height="18" viewBox="0 0 18 18" fill="currentColor" xmlns="http://www.w3.org/2000/svg">
<path d="M9 0C7.6193 0 6.5 1.09309 6.5 2.44148C6.5 3.62264 7.3589 4.6079 8.5 4.83411V10.4983C8.5 10.6332 8.6119 10.7425 8.75 10.7425H9.25C9.3881 10.7425 9.5 10.6332 9.5 10.4983V4.83411C10.6411 4.6079 11.5 3.62264 11.5 2.44148C11.5 1.09309 10.3807 0 9 0Z" fill="currentColor"/>
<path fill-rule="evenodd" clip-rule="evenodd" d="M7.5 6.36156V10.4983C7.5 11.1725 8.0596 11.7191 8.75 11.7191H9.25C9.9404 11.7191 10.5 11.1725 10.5 10.4983V6.36156C10.5 6.22505 10.6397 6.13107 10.766 6.18959C10.8051 6.2077 10.8439 6.22654 10.8823 6.24609L17.4294 9.57613C17.8337 9.79353 18 10.2077 18 10.5653C18 10.923 17.8337 11.3371 17.4293 11.5545L10.6286 15.2106C9.5997 15.7637 8.4003 15.7637 7.3714 15.2106L0.57071 11.5545C0.16634 11.3371 0 10.923 0 10.5653C0 10.2077 0.16633 9.79363 0.57071 9.57623L0.58081 9.57083L7.1177 6.24609C7.1561 6.22654 7.1949 6.2077 7.234 6.18959C7.3603 6.13107 7.5 6.22505 7.5 6.36156ZM3.56929 9.96053C3.83331 9.83153 4.16307 9.76593 4.5 9.76593C4.83693 9.76593 5.16669 9.83153 5.43071 9.96053C5.66483 10.0748 6 10.3231 6 10.7425C6 11.1619 5.66483 11.4102 5.43071 11.5245C5.16669 11.6534 4.83693 11.7191 4.5 11.7191C4.16307 11.7191 3.83331 11.6534 3.56929 11.5245C3.33517 11.4102 3 11.1619 3 10.7425C3 10.3231 3.33517 10.0748 3.56929 9.96053Z" fill="currentColor"/>
<path d="M0.57071 12.4646C0.38506 12.3648 0.12853 12.3638 0.06236 12.5604C0.01981 12.6869 0 12.817 0 12.9404C0 13.298 0.16634 13.7121 0.57071 13.9295L7.3714 17.5857C8.4003 18.1388 9.5997 18.1388 10.6286 17.5856L17.4293 13.9295C17.8337 13.7121 18 13.298 18 12.9404C18 12.817 17.9802 12.6869 17.9377 12.5604C17.8715 12.3638 17.615 12.3648 17.4293 12.4646L10.6286 16.1208C9.5997 16.6739 8.4003 16.6739 7.3714 16.1208L0.57071 12.4646Z" fill="currentColor"/>
</svg>
