<svg width="187" height="25" viewBox="0 0 187 25" fill="none" xmlns="http://www.w3.org/2000/svg">
<path d="M19.864 4.256V12.448C19.864 15.616 19.864 18.784 19.864 21.984C19.896 22.624 19.608 23.232 19.064 23.616C18.488 24.064 17.688 24.128 17.016 23.776C16.344 23.456 15.928 22.784 15.928 22.048C15.928 21.984 15.928 21.92 15.928 21.824C15.928 18.08 15.928 14.336 15.928 10.592C15.96 9.984 15.672 9.376 15.16 9.024C14.616 8.608 13.848 8.544 13.208 8.864C12.6 9.184 12.216 9.824 12.184 10.528C12.216 11.072 11.96 11.616 11.576 11.968C11.032 12.448 10.264 12.608 9.592 12.384C8.92 12.16 8.408 11.584 8.28 10.88C8.28 10.72 8.248 10.592 8.248 10.464C8.216 9.504 7.48 8.736 6.52 8.672C5.56 8.608 4.728 9.28 4.568 10.208C4.536 10.368 4.536 10.528 4.536 10.688C4.536 14.432 4.536 18.208 4.536 21.984C4.536 22.528 4.312 23.104 3.896 23.488C3.352 23.968 2.616 24.128 1.944 23.904C1.24 23.648 0.76 23.072 0.632 22.368C0.6 22.24 0.6 22.08 0.6 21.952C0.6 15.616 0.6 9.28 0.6 2.944C0.536 2.24 0.888 1.568 1.496 1.184C2.072 0.799999 2.84 0.768 3.48 1.088C4.12 1.44 4.504 2.08 4.536 2.784C4.504 3.264 4.696 3.744 4.984 4.096C5.368 4.512 5.88 4.736 6.392 4.736C7.096 4.704 7.704 5.056 8.056 5.664C8.248 5.952 8.376 6.304 8.376 6.656C8.344 7.168 8.568 7.68 8.92 8.032C9.432 8.544 10.232 8.704 10.904 8.416C11.608 8.192 12.088 7.52 12.088 6.752C12.088 6.368 12.184 5.984 12.376 5.664C12.728 5.056 13.368 4.704 14.072 4.704C14.712 4.736 15.32 4.384 15.672 3.808C15.832 3.52 15.928 3.2 15.928 2.88C15.928 2.208 16.248 1.6 16.792 1.216C17.336 0.863998 18.04 0.799999 18.648 1.056C19.384 1.312 19.864 2.016 19.864 2.784C19.896 3.264 19.864 3.776 19.864 4.256ZM39.196 22.144C39.228 22.592 39.1 23.072 38.812 23.424C38.524 23.744 38.108 23.968 37.66 24C37.564 24 31.228 24 31.164 24C29.02 24 26.876 24 24.732 24C24.06 24 23.42 23.584 23.196 22.944C23.132 22.752 23.1 22.56 23.1 22.368C23.1 21.28 23.1 20.224 23.1 19.136C23.1 18.72 23.26 18.304 23.548 17.984C23.868 17.664 24.284 17.504 24.732 17.504C25.372 17.504 25.98 17.088 26.204 16.48C26.268 16.32 26.3 16.128 26.3 15.936C26.3 15.488 26.46 15.072 26.78 14.784C27.1 14.464 27.516 14.304 27.964 14.304C29.02 14.304 30.076 14.304 31.132 14.304C31.804 14.304 32.38 13.92 32.604 13.312C32.764 12.832 32.732 12.32 32.444 11.904C32.188 11.456 31.708 11.2 31.228 11.168C31.132 11.168 31.068 11.168 31.004 11.168C28.924 11.168 26.844 11.168 24.732 11.168C24.156 11.2 23.612 10.88 23.324 10.4C23.036 9.888 23.004 9.28 23.26 8.768C23.548 8.256 24.06 7.904 24.636 7.904C24.7 7.904 34.268 7.904 34.3 7.904C34.908 7.872 35.452 8.192 35.772 8.704C35.932 8.96 35.996 9.28 35.996 9.6C35.996 11.328 35.996 13.024 35.996 14.752C35.996 16.224 35.996 17.696 35.996 19.168C35.996 19.808 36.412 20.416 37.02 20.608C37.18 20.672 37.372 20.704 37.564 20.704C38.396 20.704 39.068 21.312 39.196 22.144ZM31.196 20.704C32.06 20.704 32.732 20 32.732 19.136C32.7 18.272 31.996 17.568 31.132 17.6C30.588 17.6 30.076 17.6 29.532 17.6C29.02 17.6 28.476 17.6 27.964 17.6C27.868 17.6 27.74 17.6 27.644 17.632C26.844 17.792 26.332 18.496 26.396 19.296C26.46 20.064 27.1 20.704 27.9 20.704C28.988 20.736 30.108 20.736 31.196 20.704ZM55.3405 15.968C55.3405 17.024 55.3405 18.08 55.3405 19.136C55.3405 19.584 55.1805 20 54.8605 20.32C54.5405 20.64 54.1245 20.8 53.6765 20.8C53.2605 20.8 52.8765 20.96 52.5885 21.248C52.2685 21.568 52.1085 21.952 52.1085 22.368C52.1085 23.04 51.6925 23.648 51.0525 23.904C50.8605 23.968 50.6365 24.032 50.4445 24C49.3885 24 48.3325 24 47.2765 24C46.1885 24 45.1325 24 44.0445 24C43.3725 24.032 42.7645 23.616 42.5085 22.944C42.3165 22.464 42.3805 21.92 42.6685 21.472C42.9565 21.024 43.4365 20.736 43.9805 20.736C44.1405 20.704 44.3325 20.736 44.4925 20.736H50.4445C50.9885 20.736 51.5005 20.48 51.7885 20C52.1085 19.52 52.1405 18.912 51.8525 18.432C51.5965 17.92 51.0845 17.6 50.5405 17.6C50.4765 17.6 50.4125 17.6 50.3165 17.6C48.2365 17.6 46.1565 17.6 44.0765 17.6C43.3725 17.632 42.7325 17.184 42.5085 16.512C42.4445 16.32 42.4125 16.128 42.4125 15.936C42.3805 14.88 42.3805 13.824 42.4125 12.736C42.4125 12.32 42.5725 11.904 42.8605 11.584C43.1805 11.264 43.5965 11.104 44.0445 11.104C44.9085 11.104 45.6125 10.4 45.6125 9.536C45.6125 9.088 45.7725 8.672 46.0925 8.352C46.4125 8.032 46.8605 7.872 47.3085 7.872C48.3645 7.872 49.4205 7.872 50.4765 7.872C51.4045 7.872 52.1405 8.608 52.1405 9.536C52.1405 10.432 51.4045 11.168 50.5085 11.168C49.4205 11.2 48.3325 11.168 47.2765 11.168C46.4125 11.2 45.7085 11.872 45.7085 12.736C45.7085 13.568 46.3805 14.272 47.2125 14.304C48.3325 14.304 49.4525 14.304 50.5405 14.304C51.5965 14.304 52.6525 14.304 53.7085 14.304C54.4765 14.304 55.1485 14.848 55.3085 15.648C55.3405 15.744 55.3405 15.872 55.3405 15.968ZM65.8975 20.832C66.3775 21.44 66.4415 22.24 66.0895 22.88C65.8015 23.584 65.1295 24.032 64.3615 24C63.0495 24.032 61.7695 24.032 60.4575 24C59.9135 24 59.4335 23.776 59.0495 23.392C58.6975 23.008 58.5055 22.496 58.5375 21.984C58.5375 18.784 58.5375 15.616 58.5375 12.448C58.5375 9.28 58.5375 6.112 58.5375 2.976C58.5055 2.4 58.7295 1.824 59.1455 1.44C59.6895 0.895998 60.5215 0.735998 61.2255 1.056C61.9615 1.312 62.4735 2.016 62.4415 2.784C62.4415 3.296 62.6335 3.776 62.9855 4.16C63.3375 4.544 63.8495 4.736 64.3615 4.736C65.3855 4.736 66.2495 5.568 66.3135 6.592C66.3775 7.648 65.6095 8.544 64.5535 8.64C64.4895 8.672 64.3935 8.672 64.2975 8.672C63.2415 8.704 62.4415 9.568 62.4735 10.592C62.4735 11.616 62.4735 12.64 62.4735 13.664C62.4735 15.168 62.4735 16.672 62.4735 18.144C62.4415 18.816 62.7935 19.456 63.3695 19.808C63.6575 19.968 64.0095 20.064 64.3935 20.064C64.9695 20.064 65.5455 20.352 65.8975 20.832ZM83.0423 12.416C84.0983 12.48 84.9303 13.344 84.9303 14.368C84.9303 16.928 84.9303 19.488 84.9303 22.048C84.8983 23.008 84.2263 23.84 83.2983 24C82.3383 24.16 81.4103 23.616 81.0903 22.72C81.0263 22.464 80.9943 22.208 80.9943 21.952C80.9943 19.456 80.9943 16.992 80.9943 14.496C80.9943 14.08 80.8983 13.664 80.6423 13.344C80.1943 12.672 79.3623 12.384 78.5943 12.608C77.8263 12.832 77.2823 13.536 77.2503 14.336C77.2823 14.88 77.0583 15.424 76.6423 15.808C76.2583 16.16 75.7783 16.352 75.2663 16.352C74.7543 16.352 74.2743 16.576 73.9543 16.928C73.6023 17.28 73.4103 17.76 73.4423 18.24C73.4423 19.488 73.4423 20.768 73.4423 22.016C73.4423 22.56 73.2183 23.104 72.8023 23.456C72.2583 24 71.4263 24.16 70.7223 23.872C69.9863 23.616 69.5063 22.912 69.5063 22.112C69.4743 21.472 69.5063 20.8 69.5063 20.16V12.48C69.5063 9.312 69.5063 6.112 69.5063 2.944C69.4743 2.24 69.8263 1.568 70.4343 1.216C71.0103 0.895998 71.6823 0.831999 72.2903 1.12C72.8663 1.376 73.2823 1.92 73.4103 2.56C73.4103 2.72 73.4423 2.88 73.4423 3.04C73.4423 5.536 73.4423 8.032 73.4423 10.528C73.4103 11.04 73.6343 11.552 74.0183 11.904C74.4983 12.384 75.2343 12.544 75.8743 12.32C76.5143 12.096 76.9943 11.552 77.1223 10.88C77.1543 10.752 77.1543 10.624 77.1543 10.496C77.1863 9.472 77.9863 8.672 79.0103 8.608C80.0023 8.544 80.8983 9.248 81.0583 10.24C81.0903 10.368 81.0903 10.496 81.0903 10.624C81.1223 11.552 81.7943 12.288 82.7223 12.416C82.8183 12.416 82.9463 12.416 83.0423 12.416ZM109.856 12.416C110.912 12.448 111.744 13.312 111.744 14.368C111.744 15.648 111.744 16.896 111.744 18.176C111.744 19.488 111.744 20.768 111.744 22.048C111.744 22.88 111.232 23.616 110.432 23.904C110.208 24 109.92 24.032 109.664 24.032C106.048 24.032 102.464 24.032 98.8475 24.032C98.5275 24.032 98.2395 24.032 97.9515 24C96.9915 23.84 96.2555 23.008 96.2875 22.048C96.2875 21.728 96.2875 12.736 96.2875 12.448C96.2875 9.28 96.2875 6.112 96.2875 2.944C96.2555 2.4 96.4795 1.856 96.8635 1.472C97.2155 1.12 97.6955 0.927999 98.1755 0.895998C98.2395 0.895998 98.2715 0.895998 98.3035 0.895998C102.112 0.895998 105.92 0.895998 109.696 0.895998C110.272 0.863998 110.847 1.12 111.232 1.536C111.744 2.112 111.872 2.912 111.583 3.616C111.296 4.32 110.624 4.8 109.856 4.832C109.536 4.864 109.184 4.832 108.832 4.832C106.592 4.832 104.352 4.832 102.112 4.832C101.44 4.832 100.832 5.184 100.48 5.728C100.288 6.048 100.192 6.432 100.224 6.784C100.224 9.152 100.224 11.488 100.224 13.824C100.224 15.264 100.224 16.736 100.224 18.176C100.224 18.656 100.384 19.136 100.736 19.52C101.088 19.872 101.568 20.064 102.048 20.096C103.36 20.096 104.672 20.096 105.952 20.096C106.976 20.064 107.776 19.232 107.808 18.24C107.808 17.216 107.008 16.384 105.984 16.352C105.28 16.384 104.64 16.032 104.256 15.424C103.872 14.848 103.84 14.08 104.192 13.472C104.48 12.832 105.12 12.416 105.824 12.416C107.168 12.384 108.512 12.384 109.856 12.416ZM131.04 22.144C131.072 22.592 130.944 23.072 130.656 23.424C130.368 23.744 129.952 23.968 129.504 24C129.408 24 123.072 24 123.008 24C120.864 24 118.72 24 116.576 24C115.904 24 115.264 23.584 115.04 22.944C114.976 22.752 114.944 22.56 114.944 22.368C114.944 21.28 114.944 20.224 114.944 19.136C114.944 18.72 115.104 18.304 115.392 17.984C115.712 17.664 116.128 17.504 116.576 17.504C117.216 17.504 117.824 17.088 118.048 16.48C118.112 16.32 118.144 16.128 118.144 15.936C118.144 15.488 118.304 15.072 118.624 14.784C118.944 14.464 119.36 14.304 119.808 14.304C120.864 14.304 121.92 14.304 122.976 14.304C123.648 14.304 124.224 13.92 124.448 13.312C124.608 12.832 124.576 12.32 124.288 11.904C124.032 11.456 123.552 11.2 123.072 11.168C122.976 11.168 122.912 11.168 122.848 11.168C120.768 11.168 118.688 11.168 116.576 11.168C116 11.2 115.456 10.88 115.168 10.4C114.88 9.888 114.848 9.28 115.104 8.768C115.392 8.256 115.904 7.904 116.48 7.904C116.544 7.904 126.112 7.904 126.144 7.904C126.752 7.872 127.296 8.192 127.616 8.704C127.776 8.96 127.84 9.28 127.84 9.6C127.84 11.328 127.84 13.024 127.84 14.752C127.84 16.224 127.84 17.696 127.84 19.168C127.84 19.808 128.256 20.416 128.864 20.608C129.024 20.672 129.216 20.704 129.408 20.704C130.24 20.704 130.912 21.312 131.04 22.144ZM123.04 20.704C123.904 20.704 124.576 20 124.576 19.136C124.544 18.272 123.84 17.568 122.976 17.6C122.432 17.6 121.92 17.6 121.376 17.6C120.864 17.6 120.32 17.6 119.808 17.6C119.712 17.6 119.584 17.6 119.488 17.632C118.688 17.792 118.176 18.496 118.24 19.296C118.304 20.064 118.944 20.704 119.744 20.704C120.832 20.736 121.952 20.736 123.04 20.704ZM154.096 12.864C154.288 13.184 154.384 13.568 154.384 13.984C154.384 15.36 154.384 16.768 154.384 18.176C154.384 19.424 154.384 20.704 154.384 21.984C154.384 22.752 153.936 23.488 153.232 23.808C152.592 24.096 151.856 24.064 151.248 23.712C150.672 23.36 150.288 22.72 150.256 22.016C150.256 21.92 150.256 21.824 150.256 21.728C150.256 19.168 150.256 16.576 150.256 13.984C150.288 13.344 150 12.736 149.456 12.352C148.88 11.904 148.112 11.84 147.44 12.192C146.8 12.512 146.384 13.152 146.384 13.888C146.352 13.984 146.384 14.08 146.384 14.144V21.92C146.384 22.656 146.032 23.328 145.392 23.712C144.816 24.064 144.08 24.096 143.472 23.808C142.864 23.552 142.416 22.976 142.288 22.304C142.256 22.144 142.256 21.952 142.256 21.792C142.256 19.2 142.256 16.576 142.256 13.984C142.288 13.344 141.968 12.736 141.456 12.352C140.88 11.904 140.08 11.84 139.44 12.192C138.8 12.512 138.352 13.152 138.352 13.888C138.352 13.984 138.352 14.048 138.352 14.144C138.352 16.736 138.352 19.328 138.352 21.92C138.384 22.656 138 23.36 137.36 23.744C136.72 24.128 135.92 24.128 135.28 23.744C134.64 23.36 134.224 22.688 134.256 21.92C134.224 20.48 134.256 19.008 134.256 17.536V15.936C134.256 13.952 134.256 11.968 134.256 10.016C134.224 9.248 134.608 8.576 135.216 8.192C135.536 8 135.888 7.872 136.272 7.872C137.616 7.872 138.992 7.872 140.368 7.872C141.456 7.904 142.352 8.768 142.352 9.888C142.352 10.688 142.832 11.424 143.568 11.744C144.176 11.968 144.848 11.936 145.392 11.584C145.904 11.232 146.256 10.656 146.256 10.016C146.256 9.44 146.48 8.896 146.864 8.512C147.44 7.904 148.304 7.712 149.072 8C149.84 8.32 150.384 9.056 150.384 9.888C150.352 10.592 150.704 11.232 151.312 11.584C151.6 11.776 151.984 11.904 152.336 11.872C153.04 11.872 153.712 12.256 154.096 12.864ZM169.983 21.216C170.399 21.664 170.559 22.336 170.335 22.912C170.143 23.488 169.599 23.904 168.991 23.968C168.895 24 168.799 24 168.703 24C165.567 24 162.463 24 159.327 24C158.879 24.032 158.431 23.84 158.079 23.52C157.791 23.232 157.599 22.816 157.631 22.4C157.631 21.952 157.631 10.08 157.631 9.632C157.599 9.056 157.887 8.512 158.399 8.224C158.655 8.064 158.975 7.968 159.263 8C159.775 8 160.255 8 160.735 8C163.391 8 166.047 8 168.735 8C169.151 7.968 169.567 8.128 169.919 8.416C170.271 8.736 170.463 9.184 170.431 9.664C170.431 10.848 170.431 12.032 170.431 13.216C170.431 14.144 170.431 15.04 170.431 15.968C170.463 16.672 170.015 17.312 169.343 17.536C169.151 17.6 168.927 17.632 168.703 17.632C166.655 17.632 164.575 17.632 162.527 17.632C162.207 17.6 161.887 17.696 161.631 17.856C161.055 18.208 160.767 18.912 160.927 19.584C161.119 20.256 161.727 20.704 162.399 20.736C162.495 20.736 162.559 20.736 162.623 20.736C164.671 20.736 166.687 20.736 168.735 20.736C169.215 20.704 169.663 20.896 169.983 21.216ZM162.303 11.264C161.759 11.296 161.279 11.648 161.055 12.128C160.799 12.608 160.831 13.184 161.151 13.664C161.439 14.112 161.919 14.368 162.463 14.368C162.975 14.368 163.487 14.368 164.031 14.368C164.543 14.368 165.087 14.368 165.599 14.368C166.207 14.368 166.751 14.048 167.007 13.504C167.295 12.992 167.231 12.352 166.879 11.872C166.591 11.488 166.079 11.232 165.599 11.264C164.543 11.264 163.519 11.264 162.463 11.264C162.399 11.264 162.367 11.264 162.303 11.264ZM186.591 15.968C186.591 17.024 186.591 18.08 186.591 19.136C186.591 19.584 186.431 20 186.111 20.32C185.791 20.64 185.375 20.8 184.927 20.8C184.511 20.8 184.127 20.96 183.839 21.248C183.519 21.568 183.359 21.952 183.359 22.368C183.359 23.04 182.943 23.648 182.303 23.904C182.111 23.968 181.887 24.032 181.695 24C180.639 24 179.583 24 178.527 24C177.439 24 176.383 24 175.295 24C174.623 24.032 174.015 23.616 173.759 22.944C173.567 22.464 173.631 21.92 173.919 21.472C174.207 21.024 174.687 20.736 175.231 20.736C175.391 20.704 175.583 20.736 175.743 20.736H181.695C182.239 20.736 182.751 20.48 183.039 20C183.359 19.52 183.391 18.912 183.103 18.432C182.847 17.92 182.335 17.6 181.791 17.6C181.727 17.6 181.663 17.6 181.567 17.6C179.487 17.6 177.407 17.6 175.327 17.6C174.623 17.632 173.983 17.184 173.759 16.512C173.695 16.32 173.663 16.128 173.663 15.936C173.631 14.88 173.631 13.824 173.663 12.736C173.663 12.32 173.823 11.904 174.111 11.584C174.431 11.264 174.847 11.104 175.295 11.104C176.159 11.104 176.863 10.4 176.863 9.536C176.863 9.088 177.023 8.672 177.343 8.352C177.663 8.032 178.111 7.872 178.559 7.872C179.615 7.872 180.671 7.872 181.727 7.872C182.655 7.872 183.391 8.608 183.391 9.536C183.391 10.432 182.655 11.168 181.759 11.168C180.671 11.2 179.583 11.168 178.527 11.168C177.663 11.2 176.959 11.872 176.959 12.736C176.959 13.568 177.631 14.272 178.463 14.304C179.583 14.304 180.703 14.304 181.791 14.304C182.847 14.304 183.903 14.304 184.959 14.304C185.727 14.304 186.399 14.848 186.559 15.648C186.591 15.744 186.591 15.872 186.591 15.968Z" fill="#F79C06"/>
</svg>
