<svg width="20" height="20" viewBox="0 0 20 20" fill="none" xmlns="http://www.w3.org/2000/svg">
<circle cx="9.99935" cy="7.50033" r="3.33333" fill="white"/>
<circle cx="14.166" cy="7.5" r="2.5" fill="white"/>
<circle cx="5.83203" cy="7.5" r="2.5" fill="white"/>
<path fill-rule="evenodd" clip-rule="evenodd" d="M14.6404 15.0007H16.5793C17.0723 15.0007 17.4503 14.5758 17.3306 14.0975C17.0237 12.8722 16.2067 10.834 14.1668 10.834C13.4284 10.834 12.8502 11.101 12.3984 11.4999C13.6549 12.3151 14.3045 13.7425 14.6404 15.0007Z" fill="white"/>
<path fill-rule="evenodd" clip-rule="evenodd" d="M7.60093 11.4999C7.14919 11.101 6.57102 10.834 5.83262 10.834C3.79269 10.834 2.97567 12.8722 2.66881 14.0975C2.54905 14.5758 2.92708 15.0007 3.4201 15.0007H5.3589C5.69481 13.7425 6.34447 12.3151 7.60093 11.4999Z" fill="white"/>
<path d="M9.9987 11.667C13.0892 11.667 13.8874 14.4178 14.0936 15.8387C14.1597 16.2942 13.7923 16.667 13.332 16.667H6.66536C6.20513 16.667 5.83773 16.2942 5.90381 15.8387C6.10996 14.4178 6.90815 11.667 9.9987 11.667Z" fill="white"/>
</svg>
