<svg width="40" height="40" viewBox="0 0 40 40" fill="none" xmlns="http://www.w3.org/2000/svg">
<path fill-rule="evenodd" clip-rule="evenodd" d="M16.5662 21.0773L12.8205 19.8287C8.89851 18.5214 6.9375 17.8677 6.9375 16.6664C6.9375 15.4652 8.89851 14.8115 12.8205 13.5041L27.0092 8.7746C29.7688 7.85472 31.1486 7.39478 31.877 8.12314C32.6053 8.8515 32.1454 10.2313 31.2255 12.991L26.496 27.1796C25.1886 31.1016 24.535 33.0626 23.3337 33.0626C22.1324 33.0626 21.4788 31.1016 20.1714 27.1796L18.9231 23.4345L26.1789 16.1787C26.8298 15.5278 26.8298 14.4725 26.1789 13.8216C25.528 13.1708 24.4727 13.1708 23.8219 13.8216L16.5662 21.0773Z" fill="white"/>
<path d="M12.8205 19.8287L12.9786 19.3544L12.8205 19.8287ZM16.5662 21.0773L16.4081 21.5516L16.7013 21.6493L16.9198 21.4308L16.5662 21.0773ZM12.8205 13.5041L12.6624 13.0298L12.8205 13.5041ZM27.0092 8.7746L27.1673 9.24894L27.0092 8.7746ZM31.877 8.12314L32.2305 7.76959V7.76959L31.877 8.12314ZM31.2255 12.991L30.7512 12.8329L31.2255 12.991ZM26.496 27.1796L26.9703 27.3377L26.496 27.1796ZM20.1714 27.1796L20.6458 27.0215L20.1714 27.1796ZM18.9231 23.4345L18.5695 23.0809L18.351 23.2994L18.4487 23.5926L18.9231 23.4345ZM26.1789 16.1787L26.5324 16.5322V16.5322L26.1789 16.1787ZM26.1789 13.8216L26.5324 13.4681V13.4681L26.1789 13.8216ZM23.8219 13.8216L24.1754 14.1752L23.8219 13.8216ZM12.6624 20.303L16.4081 21.5516L16.7244 20.6029L12.9786 19.3544L12.6624 20.303ZM6.4375 16.6664C6.4375 17.5974 7.2141 18.1829 8.18953 18.6574C9.20698 19.1524 10.7166 19.6544 12.6624 20.303L12.9786 19.3544C11.0025 18.6956 9.57055 18.2172 8.62699 17.7582C7.64141 17.2787 7.4375 16.9367 7.4375 16.6664H6.4375ZM12.6624 13.0298C10.7166 13.6784 9.20698 14.1805 8.18953 14.6754C7.2141 15.15 6.4375 15.7355 6.4375 16.6664H7.4375C7.4375 16.3961 7.64141 16.0541 8.62699 15.5747C9.57055 15.1157 11.0025 14.6372 12.9787 13.9785L12.6624 13.0298ZM26.851 8.30026L12.6624 13.0298L12.9787 13.9785L27.1673 9.24894L26.851 8.30026ZM32.2305 7.76959C31.6856 7.22463 30.9394 7.19225 30.1172 7.33851C29.2914 7.48541 28.2147 7.8457 26.851 8.30026L27.1673 9.24894C28.5632 8.78362 29.5562 8.454 30.2924 8.32305C31.0321 8.19146 31.34 8.29329 31.5234 8.47669L32.2305 7.76959ZM31.6999 13.1491C32.1544 11.7854 32.5147 10.7087 32.6616 9.8829C32.8079 9.06073 32.7755 8.31454 32.2305 7.76959L31.5234 8.47669C31.7068 8.6601 31.8087 8.96801 31.6771 9.70775C31.5461 10.4439 31.2165 11.4369 30.7512 12.8329L31.6999 13.1491ZM26.9703 27.3377L31.6999 13.1491L30.7512 12.8329L26.0216 27.0215L26.9703 27.3377ZM23.3337 33.5626C24.2646 33.5626 24.8502 32.786 25.3247 31.8106C25.8196 30.7931 26.3217 29.2836 26.9703 27.3377L26.0216 27.0215C25.3629 28.9976 24.8845 30.4296 24.4254 31.3731C23.946 32.3587 23.604 32.5626 23.3337 32.5626V33.5626ZM19.6971 27.3377C20.3457 29.2836 20.8478 30.7931 21.3427 31.8106C21.8172 32.786 22.4028 33.5626 23.3337 33.5626V32.5626C23.0634 32.5626 22.7214 32.3587 22.242 31.3731C21.7829 30.4296 21.3045 28.9976 20.6458 27.0215L19.6971 27.3377ZM18.4487 23.5926L19.6971 27.3377L20.6458 27.0215L19.3974 23.2764L18.4487 23.5926ZM25.8253 15.8251L18.5695 23.0809L19.2766 23.788L26.5324 16.5322L25.8253 15.8251ZM25.8253 14.1752C26.2809 14.6308 26.2809 15.3695 25.8253 15.8251L26.5324 16.5322C27.3786 15.6861 27.3786 14.3142 26.5324 13.4681L25.8253 14.1752ZM24.1754 14.1752C24.631 13.7196 25.3697 13.7196 25.8253 14.1752L26.5324 13.4681C25.6863 12.622 24.3144 12.622 23.4683 13.4681L24.1754 14.1752ZM16.9198 21.4308L24.1754 14.1752L23.4683 13.4681L16.2127 20.7237L16.9198 21.4308Z" fill="black"/>
</svg>
