<svg width="16" height="16" viewBox="0 0 16 16" fill="none" xmlns="http://www.w3.org/2000/svg">
<path d="M7.2084 2.99744C6.83572 3.26372 6.42113 3.43494 5.98001 3.50724C5.93441 3.70878 5.85069 3.99412 5.729 4.3175H10.1862C10.1253 4.07784 10.0835 3.83054 10.0606 3.59466C9.77545 3.64798 9.53587 3.5148 9.11751 3.28278C9.03386 3.2371 8.94258 3.18386 8.83988 3.12676C8.4368 3.55662 7.52407 3.87236 7.23124 3.9675C7.07144 4.01696 6.93456 3.84196 7.0182 3.69744C7.1361 3.51102 7.20076 3.27514 7.2084 2.99744Z" fill="currentColor"/>
<path d="M11.9434 6.29975H12.4263C12.472 6.29975 12.5214 6.24651 12.5214 6.16665V5.03687C12.5214 4.95693 12.472 4.90369 12.4263 4.90369H11.9434V6.29975Z" fill="currentColor"/>
<path d="M5.3372 4.31767C5.49692 3.91443 5.60726 3.53017 5.64908 3.30957C5.66428 3.22971 5.72894 3.17261 5.8088 3.16119C6.34507 3.10031 6.83179 2.87207 7.2578 2.48789C7.36806 2.38897 7.54676 2.45741 7.56204 2.60579C7.59622 2.93295 7.57724 3.22585 7.50494 3.48457C8.07161 3.26775 8.50517 3.00525 8.63828 2.79599C8.69152 2.71613 8.79422 2.68951 8.87786 2.73133C9.04136 2.81883 9.17832 2.89491 9.29622 2.95957C9.81721 3.24869 9.90849 3.29437 10.1481 3.17639C10.266 3.11937 10.4067 3.20301 10.4105 3.33619C10.4181 3.63673 10.4752 3.98665 10.5626 4.31381H11.2434C11.4031 2.85687 11.1521 1.70046 10.5056 0.970062C9.94275 0.327161 9.09846 0 7.99939 0C6.90031 0 6.0598 0.327161 5.49314 0.970062C4.85047 1.70424 4.59561 2.85687 4.75533 4.31381H5.3372V4.31767Z" fill="currentColor"/>
<path d="M6.92425 6.71024C6.97749 6.63038 7.06499 6.5847 7.16769 6.5847H8.84863C8.95133 6.5847 9.03876 6.63038 9.092 6.71024L9.38868 7.16672L11.5792 6.8776C11.5792 6.14342 11.5792 5.41302 11.5792 4.67883C9.19848 4.67883 6.82163 4.67883 4.44092 4.67883V6.8776C5.17109 6.97274 5.90126 7.0678 6.63143 7.16672L6.92425 6.71024Z" fill="currentColor"/>
<mask id="mask0_40_49" style="mask-type:luminance" maskUnits="userSpaceOnUse" x="1" y="10" width="14" height="6">
<path d="M1.25 10.7456H14.7463V15.9999H1.25V10.7456Z" fill="white"/>
</mask>
<g mask="url(#mask0_40_49)">
<path d="M9.93855 10.7617C9.36054 11.1839 8.67976 11.3931 7.99905 11.3931C7.31826 11.3931 6.63369 11.1839 6.05946 10.7617C2.98277 11.2714 1.46919 11.7431 1.25244 15.9999H14.7418C14.525 11.7431 13.0152 11.2714 9.93855 10.7617Z" fill="currentColor"/>
</g>
<path d="M3.59164 6.29975H4.07089V4.90369H3.59164C3.54604 4.90369 3.49658 4.96079 3.49658 5.03687V6.16665C3.49658 6.24651 3.54604 6.29975 3.59164 6.29975Z" fill="currentColor"/>
<path d="M6.28906 10.4766C7.30828 11.2108 8.69261 11.2108 9.71183 10.4766V9.4115C8.65835 10.2407 7.34253 10.2407 6.28906 9.4115V10.4766Z" fill="currentColor"/>
<path d="M10.7274 7.36063L9.37735 7.53949C9.27087 7.55469 9.16817 7.50523 9.11115 7.41773L8.81068 6.95361H7.20582L6.90536 7.41773C6.84834 7.50523 6.74178 7.55469 6.63916 7.54327L5.27002 7.36449C6.52125 10.442 9.47619 10.442 10.7274 7.36063Z" fill="currentColor"/>
</svg>
