<svg width="10" height="18" viewBox="0 0 10 18" fill="none" xmlns="http://www.w3.org/2000/svg">
<path d="M4.5 10.8H3.12986C1.72143 10.8 1.01721 10.8 0.72228 10.3385C0.427353 9.87692 0.723212 9.23786 1.31493 7.95975L4.04627 2.06006C4.42045 1.25182 4.60755 0.847696 4.80377 0.890915C5 0.934134 5 1.37946 5 2.27013V6.7C5 6.9357 5 7.05355 5.07322 7.12678C5.14645 7.2 5.2643 7.2 5.5 7.2H6.87014C8.27857 7.2 8.98279 7.2 9.27772 7.66154C9.57265 8.12308 9.27679 8.76214 8.68507 10.0402L5.95373 15.9399C5.57955 16.7482 5.39245 17.1523 5.19623 17.1091C5 17.0659 5 16.6205 5 15.7299V11.3C5 11.0643 5 10.9464 4.92678 10.8732C4.85355 10.8 4.7357 10.8 4.5 10.8Z" fill="currentColor"/>
</svg>
